<!-- Generated by IcoMoon.io -->
<svg version="1.1" xmlns="http://www.w3.org/2000/svg" width="29" height="32" viewBox="0 0 29 32">
<title>at</title>
<path d="M27.109 13.844q0 2.25-0.719 4.117t-2.031 2.93-3.047 1.063q-1.156 0-2.047-0.555t-1.281-1.461h-0.25q-1.688 2.016-4.297 2.016-2.766 0-4.359-1.664t-1.594-4.555q0-3.297 2.094-5.313t5.469-2.016q1.344 0 2.961 0.258t2.664 0.617l-0.359 7.641q0 2.172 1.188 2.172 1 0 1.594-1.461t0.594-3.82q0-2.516-1.047-4.445t-2.945-2.945-4.336-1.016q-3.156 0-5.484 1.297t-3.57 3.742-1.242 5.648q0 4.313 2.305 6.617t6.68 2.305q1.656 0 3.641-0.367t3.906-1.070v3q-3.344 1.422-7.422 1.422-5.938 0-9.258-3.125t-3.32-8.688q0-3.859 1.695-7.008t4.828-4.938 7.211-1.789q3.438 0 6.141 1.406t4.172 4 1.469 5.984zM11.109 15.797q0 3.297 2.688 3.297 1.406 0 2.141-0.992t0.891-3.227l0.203-3.453q-0.797-0.172-1.797-0.172-1.953 0-3.039 1.219t-1.086 3.328z"></path>
</svg>
